<svg id="noun-photo-1939516" xmlns="http://www.w3.org/2000/svg" width="32.455" height="23.692" viewBox="0 0 32.455 23.692">
  <path id="Path_465" data-name="Path 465" d="M80.291,81.389a2.395,2.395,0,1,0,1.694.7A2.395,2.395,0,0,0,80.291,81.389ZM98.561,75.6H73.895A3.895,3.895,0,0,0,70,79.5V95.4a3.895,3.895,0,0,0,3.895,3.895H98.561a3.895,3.895,0,0,0,3.895-3.895V79.5A3.895,3.895,0,0,0,98.561,75.6Zm1.947,19.8h0a1.947,1.947,0,0,1-1.947,1.947h-.3a2.761,2.761,0,0,0-.357-.974L91.421,85.121c-.892-1.545-2.353-1.545-3.246,0l-5.167,8.922-1.379-2.32c-.912-1.535-2.4-1.535-3.317,0L75.517,96.4a2.774,2.774,0,0,0-.367.951H73.895A1.947,1.947,0,0,1,71.948,95.4V79.5a1.947,1.947,0,0,1,1.947-1.947H98.561a1.947,1.947,0,0,1,1.947,1.947V95.4Z" transform="translate(-70 -75.602)" fill="#d1d1d1"/>
</svg>
