<svg id="noun-link-5153967" xmlns="http://www.w3.org/2000/svg" width="21.116" height="21.116" viewBox="0 0 21.116 21.116">
  <path id="noun-link-5153967-2" data-name="noun-link-5153967" d="M75.087,13.312a1.206,1.206,0,0,1-.856-.368l-2.416-2.39a6.168,6.168,0,0,1,8.716-8.731l2.416,2.42A1.234,1.234,0,0,1,81.2,5.99l-2.416-2.42a3.726,3.726,0,0,0-2.63-1.1,3.673,3.673,0,0,0-2.63,1.1,3.7,3.7,0,0,0,0,5.27l2.416,2.42a1.222,1.222,0,0,1,0,1.746,1.39,1.39,0,0,1-.856.306Zm9.847,7.812a6.229,6.229,0,0,1-4.373-1.808L78.146,16.9a1.234,1.234,0,1,1,1.743-1.746L82.3,17.57a3.723,3.723,0,0,0,5.26-5.27L85.149,9.88a1.234,1.234,0,0,1,1.743-1.746l2.416,2.42a6.2,6.2,0,0,1-4.373,10.57Zm-3.272-7.751a1.207,1.207,0,0,0,.856.368,1.331,1.331,0,0,0,.887-.337,1.222,1.222,0,0,0,0-1.746L79.46,7.7a1.234,1.234,0,0,0-1.743,1.746Z" transform="translate(-70.003 -0.008)" fill="#d1d1d1" fill-rule="evenodd"/>
</svg>
