<svg id="noun-happiness-3521810" xmlns="http://www.w3.org/2000/svg" width="26.613" height="26.613" viewBox="0 0 26.613 26.613">
  <path id="Path_429" data-name="Path 429" d="M133.707,50.4A13.307,13.307,0,1,0,147.013,63.7,13.325,13.325,0,0,0,133.707,50.4ZM125.917,63.7a.649.649,0,1,1-1.3,0,2.921,2.921,0,0,1,5.842,0,.649.649,0,1,1-1.3,0,1.623,1.623,0,0,0-3.246,0Zm14.443,6.653a9.4,9.4,0,0,1-13.307,0,.643.643,0,0,1,.909-.909,6.241,6.241,0,0,0,.487.454,8.188,8.188,0,0,0,5.258,1.915,8.037,8.037,0,0,0,5.225-1.915,6.162,6.162,0,0,0,.487-.454.627.627,0,0,1,.909,0,.6.6,0,0,1,.033.909Zm1.785-6a.651.651,0,0,1-.649-.649,1.623,1.623,0,1,0-3.246,0,.649.649,0,1,1-1.3,0,2.921,2.921,0,0,1,5.842,0A.651.651,0,0,1,142.145,64.354Z" transform="translate(-120.4 -50.398)" fill="#d1d1d1"/>
</svg>
