<?xml version="1.0" encoding="utf-8"?>
<!-- Generator: Adobe Illustrator 27.7.0, SVG Export Plug-In . SVG Version: 6.00 Build 0)  -->
<svg version="1.1" id="Layer_1" xmlns="http://www.w3.org/2000/svg" xmlns:xlink="http://www.w3.org/1999/xlink" x="0px" y="0px"
	 viewBox="0 0 32 40" style="enable-background:new 0 0 32 40;" xml:space="preserve">
<g>
	<path d="M28.5,25.4c0,1.1-0.9,2-2,2h-0.8L23.6,6.7c0-1.1-0.9-2-2-2H7.4l15.8-3.5c0.3-0.1,0.6-0.1,0.9-0.1c1.8,0,3.2,1.4,3.2,3.2
		c0,0,0,0,0,0L28.5,25.4z" fill="#FFFFFF"/> <!-- Change the fill color to white (#FFFFFF) -->
	<path d="M25.2,27.4L23.1,6.7c0-0.9-0.7-1.5-1.5-1.5H5.1c-0.9,0-1.5,0.7-1.6,1.5l1.1,22.7c0,0.9,0.7,1.5,1.5,1.5c0,0,0,0,0,0h17.6
		c0.9,0,1.6-0.7,1.6-1.5c0,0,0,0,0,0L25.2,27.4z M18.8,18.2l-1.1,1.1c-0.3,0.3-0.4,0.6-0.3,1l0.3,1.5c0.1,0.6-0.3,1.2-1,1.3
		c-0.2,0-0.5,0-0.7-0.1l-1.4-0.7c-0.3-0.2-0.7-0.2-1.1,0L12.2,23c-0.6,0.3-1.2,0.1-1.5-0.5c-0.1-0.2-0.2-0.5-0.1-0.7l0.3-1.5
		c0.1-0.4-0.1-0.7-0.3-1l-1.1-1c-0.5-0.4-0.5-1.1,0-1.6c0.2-0.2,0.4-0.3,0.6-0.3l1.5-0.2c0.4-0.1,0.7-0.3,0.9-0.6l0.7-1.4
		c0.3-0.6,1-0.8,1.5-0.5c0.2,0.1,0.4,0.3,0.5,0.5l0.7,1.4c0.2,0.3,0.5,0.6,0.8,0.6l1.5,0.2c0.6,0.1,1.1,0.6,1,1.2
		C19.1,17.8,19,18.1,18.8,18.2z" fill="#FFFFFF"/>
</g>
</svg>

