<svg xmlns="http://www.w3.org/2000/svg" width="17.933" height="17.922" viewBox="0 0 17.933 17.922">
  <path id="Path_266" data-name="Path 266" d="M118.273,31.865a2.551,2.551,0,0,0-1.8-.757H103.68a2.567,2.567,0,0,0-2.572,2.555V43.9a2.556,2.556,0,0,0,2.555,2.555h3.189a1.289,1.289,0,0,1,1.031.515L109,48.515a1.278,1.278,0,0,0,2.051,0l1.149-1.547h0a1.267,1.267,0,0,1,1.026-.515h3.2a2.567,2.567,0,0,0,2.612-2.555V33.664a2.551,2.551,0,0,0-.768-1.8ZM108.158,41.981a1.278,1.278,0,0,1-1.278,1.278h-1.289a1.272,1.272,0,0,1-1.272-1.278V40.7a1.278,1.278,0,0,1,1.272-1.278h1.278a1.283,1.283,0,0,1,1.278,1.278Zm-1.771-4.663h0a.65.65,0,0,1-.9,0l-1.328-1.272.874-.919.874.846,1.479-1.5.908.9Zm9.443,4.663h-5.755V40.7h5.755Zm0-5.116h-5.755V35.592h5.755Z" transform="translate(-101.108 -31.109)" fill="#fff" fill-rule="evenodd" opacity="0.851"/>
</svg>
