<svg xmlns="http://www.w3.org/2000/svg" width="13.516" height="13.516" viewBox="0 0 13.516 13.516">
  <g id="noun-join-3557825" transform="translate(0.079 0.079)">
    <path id="Path_552" data-name="Path 552" d="M186.134,110.025a4.956,4.956,0,1,0-6.1,6.1,4.955,4.955,0,1,0,6.1-6.1Zm-8.007,1.327a3.232,3.232,0,0,1,6.106-1.474,4.956,4.956,0,0,0-4.348,4.348,3.232,3.232,0,0,1-1.758-2.874Zm6.453.226h0a3.232,3.232,0,0,1-3,3,3.232,3.232,0,0,1,3-3Zm.226,6.453a3.232,3.232,0,0,1-2.874-1.758,4.956,4.956,0,0,0,4.348-4.348,3.232,3.232,0,0,1-1.474,6.106Z" transform="translate(-176.404 -106.397)" fill="#5486e3" stroke="#5486e3" stroke-width="0.1"/>
  </g>
</svg>
