<svg id="noun-birthday-2938679" xmlns="http://www.w3.org/2000/svg" width="16.823" height="18.312" viewBox="0 0 16.823 18.312">
  <path id="Path_508" data-name="Path 508" d="M135.056,346.893v3.217a4.728,4.728,0,0,1-.005.508c.013-.1.025-.193.038-.291a1.012,1.012,0,0,1-.055.209c.036-.087.073-.175.109-.26a1.024,1.024,0,0,1-.106.184l.171-.22a.829.829,0,0,1-.149.149l.22-.171a.8.8,0,0,1-.184.106l.26-.109a.843.843,0,0,1-.209.055l.291-.038a3.453,3.453,0,0,1-.388.005H125.33c-.451,0-.9,0-1.354,0-.038,0-.076,0-.113-.005l.291.038a1.01,1.01,0,0,1-.209-.055l.26.109a1.025,1.025,0,0,1-.184-.106l.22.171a.829.829,0,0,1-.149-.149l.171.22a.8.8,0,0,1-.106-.184c.036.087.073.175.109.26a.846.846,0,0,1-.055-.209c.013.1.025.193.038.291a4.086,4.086,0,0,1-.005-.422v-3.306l-1.864.772a3.541,3.541,0,0,0,.577.406,3.618,3.618,0,0,0,.668.271,3.408,3.408,0,0,0,2.512-.311,3.034,3.034,0,0,0,.857-.715H125.45a3.107,3.107,0,0,0,.786.675,3.726,3.726,0,0,0,.579.271,2.2,2.2,0,0,0,.386.118,3.986,3.986,0,0,0,.674.084,3.863,3.863,0,0,0,.679-.064,2.072,2.072,0,0,0,.393-.1,3.912,3.912,0,0,0,.588-.257,3.7,3.7,0,0,0,.57-.41,2.368,2.368,0,0,0,.313-.32h-1.546a3.083,3.083,0,0,0,.788.675,3.726,3.726,0,0,0,.579.271,2.2,2.2,0,0,0,.386.118,3.987,3.987,0,0,0,.674.084,3.866,3.866,0,0,0,.679-.064,2.125,2.125,0,0,0,.4-.1,3.915,3.915,0,0,0,.588-.257,3.7,3.7,0,0,0,.57-.41,2.366,2.366,0,0,0,.313-.32H132.3a3.017,3.017,0,0,0,.859.717,3.808,3.808,0,0,0,.612.269,2.244,2.244,0,0,0,.437.1,3.519,3.519,0,0,0,.732.053,3.834,3.834,0,0,0,.7-.107,3.04,3.04,0,0,0,1.061-.513,1.225,1.225,0,0,0,.5-.654,1.092,1.092,0,0,0-.763-1.343l-.291-.038a1.091,1.091,0,0,0-.552.149,2.371,2.371,0,0,1-.524.308l.26-.109a2.294,2.294,0,0,1-.539.147l.291-.038a2.3,2.3,0,0,1-.592,0l.291.038a2.269,2.269,0,0,1-.566-.155l.26.109a2.277,2.277,0,0,1-.473-.275l.22.171a2.322,2.322,0,0,1-.388-.38.807.807,0,0,0-.351-.226.82.82,0,0,0-.421-.095,1.057,1.057,0,0,0-.772.32,2.325,2.325,0,0,1-.388.38l.22-.171a2.264,2.264,0,0,1-.471.275l.26-.109a2.248,2.248,0,0,1-.566.155l.291-.038a2.356,2.356,0,0,1-.577,0l.291.038a2.269,2.269,0,0,1-.566-.155l.26.109a2.264,2.264,0,0,1-.471-.275l.22.171a2.246,2.246,0,0,1-.386-.38.807.807,0,0,0-.351-.226.82.82,0,0,0-.421-.095,1.057,1.057,0,0,0-.772.32,2.312,2.312,0,0,1-.386.38l.22-.171a2.264,2.264,0,0,1-.471.275l.26-.109a2.248,2.248,0,0,1-.566.155l.291-.038a2.355,2.355,0,0,1-.577,0l.291.038a2.235,2.235,0,0,1-.564-.155l.26.109a2.264,2.264,0,0,1-.471-.275l.22.171a2.245,2.245,0,0,1-.386-.38.807.807,0,0,0-.351-.226.82.82,0,0,0-.421-.095,1.057,1.057,0,0,0-.772.32,2.312,2.312,0,0,1-.386.38l.22-.171a2.218,2.218,0,0,1-.471.275l.26-.109a2.256,2.256,0,0,1-.564.155l.291-.038a2.313,2.313,0,0,1-.593,0l.291.038a2.308,2.308,0,0,1-.541-.147l.26.109a2.166,2.166,0,0,1-.47-.273l.22.171-.044-.035a1.354,1.354,0,0,0-.482-.28l-.291-.038a.812.812,0,0,0-.421.095.535.535,0,0,0-.24.14.565.565,0,0,0-.2.2,1.073,1.073,0,0,0-.235.663v3.6c0,.044,0,.086.005.129a1.873,1.873,0,0,0,.095.5,1.9,1.9,0,0,0,.217.444,1.863,1.863,0,0,0,.725.646,2.038,2.038,0,0,0,.863.211H134.4c.313,0,.624,0,.938,0a2.023,2.023,0,0,0,.883-.22,1.906,1.906,0,0,0,1.019-1.718v-3.59a1.094,1.094,0,0,0-1.092-1.092,1.1,1.1,0,0,0-.772.32,1.135,1.135,0,0,0-.317.77Z" transform="translate(-121.235 -334.113)" fill="#5486e3"/>
  <path id="Path_509" data-name="Path 509" d="M112.062,242.432a2.543,2.543,0,0,1-.018.288c.013-.1.025-.193.038-.291a2.3,2.3,0,0,1-.153.562c.036-.087.073-.175.109-.26a2.339,2.339,0,0,1-.289.492l.171-.22a2.374,2.374,0,0,1-.382.382l.22-.171a2.267,2.267,0,0,1-.5.291l.26-.109a2.3,2.3,0,0,1-.539.147l.291-.038a2.3,2.3,0,0,1-.592,0l.291.038a2.272,2.272,0,0,1-.566-.155l.26.109a2.263,2.263,0,0,1-.471-.275l.22.171a2.245,2.245,0,0,1-.386-.38.807.807,0,0,0-.351-.226.821.821,0,0,0-.421-.095,1.057,1.057,0,0,0-.772.32,2.325,2.325,0,0,1-.388.38l.22-.171a2.263,2.263,0,0,1-.471.275l.26-.109a2.251,2.251,0,0,1-.566.155l.291-.038a2.352,2.352,0,0,1-.577,0l.291.038a2.272,2.272,0,0,1-.566-.155l.26.109a2.264,2.264,0,0,1-.471-.275l.22.171a2.322,2.322,0,0,1-.388-.38.807.807,0,0,0-.351-.226.821.821,0,0,0-.421-.095,1.057,1.057,0,0,0-.772.32,2.311,2.311,0,0,1-.386.38l.22-.171a2.264,2.264,0,0,1-.471.275l.26-.109a2.251,2.251,0,0,1-.566.155l.291-.038a2.352,2.352,0,0,1-.577,0l.291.038a2.272,2.272,0,0,1-.566-.155l.26.109a2.263,2.263,0,0,1-.471-.275l.22.171a2.245,2.245,0,0,1-.386-.38.807.807,0,0,0-.351-.226.821.821,0,0,0-.421-.095,1.057,1.057,0,0,0-.772.32,2.311,2.311,0,0,1-.386.38l.22-.171a2.264,2.264,0,0,1-.471.275l.26-.109a2.272,2.272,0,0,1-.566.155l.291-.038a2.3,2.3,0,0,1-.592,0l.291.038a2.3,2.3,0,0,1-.539-.147l.26.109a2.267,2.267,0,0,1-.5-.291l.22.171a2.3,2.3,0,0,1-.382-.382l.171.22a2.3,2.3,0,0,1-.289-.492c.036.087.073.175.109.26a2.32,2.32,0,0,1-.153-.562c.013.1.025.193.038.291a2.369,2.369,0,0,1,0-.59c-.013.1-.025.193-.038.291a2.242,2.242,0,0,1,.149-.542c-.036.087-.073.175-.109.26a2.289,2.289,0,0,1,.289-.5l-.171.22a2.277,2.277,0,0,1,.386-.386l-.22.171a2.29,2.29,0,0,1,.5-.289l-.26.109a2.241,2.241,0,0,1,.542-.149l-.291.038a4.555,4.555,0,0,1,.59-.02h.772l2.481,0q2.711,0,5.425,0h.947a5.4,5.4,0,0,1,.664.02l-.291-.038a2.323,2.323,0,0,1,.542.147l-.26-.109a2.282,2.282,0,0,1,.5.288l-.22-.171a2.336,2.336,0,0,1,.386.384l-.171-.22a2.277,2.277,0,0,1,.289.493c-.036-.087-.073-.175-.109-.26a2.251,2.251,0,0,1,.149.541c-.013-.1-.025-.193-.038-.291.009.1.016.206.016.306a1.094,1.094,0,0,0,1.092,1.092,1.1,1.1,0,0,0,.772-.32,1.133,1.133,0,0,0,.32-.772,3.239,3.239,0,0,0-.823-2.164,3.261,3.261,0,0,0-.581-.515,2.24,2.24,0,0,0-.431-.255,3.352,3.352,0,0,0-.748-.262,5.22,5.22,0,0,0-.936-.076l-5.013,0q-2.427,0-4.853,0a3.985,3.985,0,0,0-1.018.113,3.369,3.369,0,0,0-1.353.748,3.445,3.445,0,0,0-.5.581,3.2,3.2,0,0,0-.357.7,2.288,2.288,0,0,0-.142.493,3.375,3.375,0,0,0-.058.845,3.27,3.27,0,0,0,1.791,2.721,3.3,3.3,0,0,0,2.594.153,3.222,3.222,0,0,0,.757-.4,3.182,3.182,0,0,0,.608-.552H101.64a3.107,3.107,0,0,0,.786.675,3.729,3.729,0,0,0,.579.271,2.2,2.2,0,0,0,.386.118,3.985,3.985,0,0,0,.674.084,3.862,3.862,0,0,0,.679-.064,2.124,2.124,0,0,0,.4-.1,3.913,3.913,0,0,0,.588-.257,3.7,3.7,0,0,0,.57-.41,2.368,2.368,0,0,0,.313-.32h-1.546a3.115,3.115,0,0,0,.788.675,3.724,3.724,0,0,0,.579.271,2.245,2.245,0,0,0,.386.118,3.983,3.983,0,0,0,.674.084,3.865,3.865,0,0,0,.679-.064,2.126,2.126,0,0,0,.4-.1,3.915,3.915,0,0,0,.588-.257,3.7,3.7,0,0,0,.57-.41,2.367,2.367,0,0,0,.313-.32h-1.546a2.46,2.46,0,0,0,.386.38,3.239,3.239,0,0,0,1.407.694,3.277,3.277,0,0,0,2.4-.41,3.389,3.389,0,0,0,1.1-1.121,3.282,3.282,0,0,0,.333-.775,3.373,3.373,0,0,0,.124-.894,1.094,1.094,0,0,0-1.092-1.092,1.1,1.1,0,0,0-.772.32,1.128,1.128,0,0,0-.324.772Z" transform="translate(-97.427 -231.358)" fill="#5486e3"/>
  <path id="Path_510" data-name="Path 510" d="M278.665,153.936v2.49l1.092-1.092-2.767,0,1.092,1.092v-2.2c0-.113-.007-.229,0-.342-.013.1-.025.193-.038.291a.554.554,0,0,1,.024-.095c-.036.087-.073.175-.109.26a.524.524,0,0,1,.058-.1l-.171.22a.585.585,0,0,1,.067-.067l-.22.171a.447.447,0,0,1,.1-.058l-.26.109a.552.552,0,0,1,.095-.024l-.291.038c.233-.022.477,0,.712,0h1.076c.093,0,.188-.005.28,0l-.291-.038a.553.553,0,0,1,.095.024l-.26-.109a.523.523,0,0,1,.1.058l-.22-.171a.59.59,0,0,1,.067.067l-.171-.22a.448.448,0,0,1,.058.1c-.036-.087-.073-.175-.109-.26a.554.554,0,0,1,.024.095c-.013-.1-.025-.193-.038-.291a.164.164,0,0,0,0,.051,1.141,1.141,0,0,0,.32.772,1.117,1.117,0,0,0,.772.32,1.094,1.094,0,0,0,1.092-1.092,1.491,1.491,0,0,0-1.516-1.493h-1.817c-.04,0-.082,0-.122,0a1.678,1.678,0,0,0-.415.058,1.5,1.5,0,0,0-.348.149,1.57,1.57,0,0,0-.311.246,1.549,1.549,0,0,0-.421,1.045v2.483a1.107,1.107,0,0,0,1.092,1.092l2.767,0a1.109,1.109,0,0,0,1.092-1.092v-2.49a1.094,1.094,0,0,0-1.092-1.092,1.1,1.1,0,0,0-.772.32,1.123,1.123,0,0,0-.322.772Z" transform="translate(-269.959 -147.535)" fill="#5486e3"/>
  <path id="Path_511" data-name="Path 511" d="M292.148,7.582a.971.971,0,0,1-.009.126c.013-.1.025-.193.038-.291a1.032,1.032,0,0,1-.056.211c.036-.087.073-.175.109-.26a.959.959,0,0,1-.118.206l.171-.22a.971.971,0,0,1-.167.167l.22-.171a1,1,0,0,1-.206.118l.26-.109a.953.953,0,0,1-.211.056l.291-.038a.967.967,0,0,1-.251,0l.291.038a1.032,1.032,0,0,1-.211-.056l.26.109a.959.959,0,0,1-.206-.118l.22.171a.973.973,0,0,1-.167-.167l.171.22a1,1,0,0,1-.118-.206c.036.087.073.175.109.26a.951.951,0,0,1-.056-.211c.013.1.025.193.038.291a.711.711,0,0,1,0-.2c-.013.1-.025.193-.038.291a.977.977,0,0,1,.073-.238c-.036.087-.073.175-.109.26a3.629,3.629,0,0,1,.479-.759l-.171.22c.107-.14.22-.277.339-.408h-1.546c.118.131.231.268.339.408l-.171-.22a3.706,3.706,0,0,1,.479.759c-.036-.087-.073-.175-.109-.26a1,1,0,0,1,.073.238c-.013-.1-.025-.193-.038-.291,0,.024,0,.047,0,.071a1.133,1.133,0,0,0,.32.772,1.117,1.117,0,0,0,.772.32,1.1,1.1,0,0,0,.772-.32,1.125,1.125,0,0,0,.32-.772,2.647,2.647,0,0,0-.59-1.465,9.2,9.2,0,0,0-.624-.783.807.807,0,0,0-.351-.226.821.821,0,0,0-.421-.095,1.1,1.1,0,0,0-.772.32c-.182.2-.346.415-.51.628-.1.131-.2.266-.288.406a3.949,3.949,0,0,0-.315.648,1.469,1.469,0,0,0-.095.692,3.033,3.033,0,0,0,.058.388,2.532,2.532,0,0,0,.147.377,1.842,1.842,0,0,0,.3.446,2.029,2.029,0,0,0,.393.333,1.828,1.828,0,0,0,.517.238,1.985,1.985,0,0,0,1.1.007,2.018,2.018,0,0,0,1.451-1.913,1.094,1.094,0,0,0-1.092-1.092,1.1,1.1,0,0,0-.772.32,1.124,1.124,0,0,0-.322.77Z" transform="translate(-283.938 -5.013)" fill="#5486e3"/>
</svg>
