<svg xmlns="http://www.w3.org/2000/svg" width="17.507" height="13.801" viewBox="0 0 17.507 13.801">
  <g id="noun-anniversary-1517964" transform="translate(0.15 0.15)">
    <path id="Path_471" data-name="Path 471" d="M147.208,117.249a.7.7,0,0,0-.69.712v.465h-2.093a1.64,1.64,0,0,0-1.628,1.628v9.068a1.64,1.64,0,0,0,1.628,1.628h13.952A1.64,1.64,0,0,0,160,129.123v-9.068a1.64,1.64,0,0,0-1.628-1.628h-2.093v-.465a.7.7,0,1,0-1.4,0v.465h-6.976v-.465a.7.7,0,0,0-.7-.712Zm-2.783,2.572h2.093v.465a.7.7,0,1,0,1.4,0v-.465h6.976v.465a.7.7,0,1,0,1.4,0v-.465h2.093a.218.218,0,0,1,.233.233v9.068a.218.218,0,0,1-.233.233H144.425a.218.218,0,0,1-.233-.233v-9.068a.218.218,0,0,1,.233-.233Zm6.918.93a.7.7,0,0,0-.538.327l-1,1.62-1.831.472a.7.7,0,0,0-.363,1.119l1.214,1.468-.131,1.918a.7.7,0,0,0,.959.7l1.751-.712,1.751.712a.7.7,0,0,0,.959-.7l-.131-1.918,1.214-1.468a.7.7,0,0,0-.363-1.119L153,122.7l-1-1.62a.7.7,0,0,0-.654-.327Zm.058,2.02.56.9a.7.7,0,0,0,.421.313l1.039.269-.69.836a.7.7,0,0,0-.16.487l.073,1.083-.981-.4a.7.7,0,0,0-.523,0l-.981.4.073-1.083a.7.7,0,0,0-.16-.487l-.69-.836,1.039-.269a.7.7,0,0,0,.421-.313Z" transform="translate(-142.798 -117.249)" fill="#5486e3" stroke="#5486e3" stroke-width="0.3"/>
  </g>
</svg>
