<svg xmlns="http://www.w3.org/2000/svg" width="19.268" height="20.712" viewBox="0 0 19.268 20.712">
  <g id="phonebook" transform="translate(-5.044 -3)" opacity="0.85">
    <path id="Path_1401" data-name="Path 1401" d="M6.814,4.428v.179a1.786,1.786,0,0,0,0,3.571V7.464a1.071,1.071,0,0,1,0-2.143V7.464H8.6a.357.357,0,0,1,0,.714H6.814V9.249a1.786,1.786,0,0,0,0,3.571v-.714a1.071,1.071,0,0,1,0-2.143v2.143H8.6a.357.357,0,1,1,0,.714H6.814v1.071a1.786,1.786,0,0,0,0,3.571v-.714a1.071,1.071,0,0,1,0-2.143v2.143H8.6a.357.357,0,0,1,0,.714H6.814v1.071a1.786,1.786,0,0,0,0,3.571v-.714a1.071,1.071,0,0,1,0-2.143v2.143H8.6a.357.357,0,0,1,0,.714H6.814a1.45,1.45,0,0,0,1.428,1.607H20.384V3H8.242A1.428,1.428,0,0,0,6.814,4.428Zm6.153,9.463h2.693a1.421,1.421,0,0,1,1.368,1.018l.843,2.807a.361.361,0,0,1-.343.461H11.1a.361.361,0,0,1-.343-.461l.843-2.807A1.421,1.421,0,0,1,12.967,13.892Zm-.975-3.035a2.321,2.321,0,1,1,2.321,2.321A2.326,2.326,0,0,1,11.992,10.856Z" transform="translate(0)" fill="#fff"/>
    <path id="Path_1402" data-name="Path 1402" d="M51.071,3H50V6.928h3.214V5.143A2.144,2.144,0,0,0,51.071,3Z" transform="translate(-28.902)" fill="#fff"/>
    <path id="Path_1403" data-name="Path 1403" d="M28.811,38.357l-.707-2.35a.7.7,0,0,0-.682-.507H24.729a.7.7,0,0,0-.682.507l-.707,2.35Z" transform="translate(-11.762 -20.894)" fill="#fff"/>
    <path id="Path_1404" data-name="Path 1404" d="M29.714,22.133a1.607,1.607,0,0,0-3.214,0A1.607,1.607,0,0,0,29.714,22.133Z" transform="translate(-13.794 -11.277)" fill="#fff"/>
    <path id="Path_1405" data-name="Path 1405" d="M50,16h3.214v3.332H50Z" transform="translate(-28.902 -8.358)" fill="#fff"/>
    <path id="Path_1406" data-name="Path 1406" d="M50,27.33h3.214v3.335H50Z" transform="translate(-28.902 -15.642)" fill="#fff"/>
    <path id="Path_1407" data-name="Path 1407" d="M50,38.67h3.214V42H50Z" transform="translate(-28.902 -22.932)" fill="#fff"/>
    <path id="Path_1408" data-name="Path 1408" d="M50,53.928h1.071a2.144,2.144,0,0,0,2.143-2.143V50H50Z" transform="translate(-28.902 -30.216)" fill="#fff"/>
  </g>
</svg>
