<svg xmlns="http://www.w3.org/2000/svg" width="21.619" height="21.619" viewBox="0 0 21.619 21.619">
  <path id="power-off_1_" data-name="power-off (1)" d="M11.81,1a10.81,10.81,0,1,0,10.81,10.81A10.81,10.81,0,0,0,11.81,1Zm-.721,5.045a.721.721,0,0,1,1.441,0v5.045a.721.721,0,1,1-1.441,0ZM11.81,18.3A6.5,6.5,0,0,1,5.324,11.81,6.428,6.428,0,0,1,7.76,6.751a.721.721,0,1,1,.894,1.124,5.045,5.045,0,1,0,6.313,0,.721.721,0,0,1,.894-1.124A6.428,6.428,0,0,1,18.3,11.81,6.5,6.5,0,0,1,11.81,18.3Z" transform="translate(-1 -1)" fill="#e5edfb"/>
</svg>
